<?xml version="1.0" encoding="UTF-8"?>
<svg id="Layer_1" data-name="Layer 1" xmlns="http://www.w3.org/2000/svg" version="1.1" viewBox="0 0 180.87 63.48">
  <defs>
    <style>
      .cls-1 {
        fill: #000;
      }

      .cls-1, .cls-2, .cls-3, .cls-4 {
        stroke-width: 0px;
      }

      .cls-2 {
        fill: #001322;
      }

      .cls-3 {
        display: none;
        fill: #fff;
      }

      .cls-5 {
        stroke-width: .45px;
      }

      .cls-5, .cls-6 {
        stroke: #c84c1f;
        stroke-miterlimit: 10;
      }

      .cls-5, .cls-4 {
        fill: #c84c1f;
      }

      .cls-6 {
        fill: none;
        stroke-linecap: round;
        stroke-width: 1.45px;
      }
    </style>
  </defs>
  <g>
    <path class="cls-1" d="M28.63,30.02h-6.5c-.16,0-.25-.03-.25-.14,0-.14.05-.16.25-.16h1.31c.25,0,.27-.33.27-1.2V12.24c0-.87-.03-1.2-.27-1.2h-1.31c-.22,0-.25-.05-.25-.14s.03-.16.25-.16h11.77c.22,0,.25.11.25.19v6.04c0,.19-.08.25-.19.25s-.16-.05-.16-.25v-.55c0-2.95-1.31-5.38-4.04-5.38h-2.92c-.19,0-.27.08-.27.16v8.93c0,.08.05.14.25.14h1.86c1.45,0,2.57-1.09,2.57-2.62v-.25c0-.19.05-.25.19-.25.11,0,.16.05.16.25v6.31c0,.19-.05.25-.19.25-.11,0-.16-.05-.16-.25v-.44c0-1.58-1.12-2.73-2.57-2.73h-1.83c-.19,0-.27.08-.27.16v7.81c0,.87.03,1.2.27,1.2h1.8c.16,0,.25.03.25.14,0,.14-.05.16-.25.16Z"/>
    <path class="cls-1" d="M43.73,30.34c-5.05,0-7.81-4.51-7.81-9.89s2.46-10.05,7.73-10.05,7.84,4.51,7.84,9.89-2.49,10.05-7.76,10.05ZM47.86,16.25c-.22-2.76-.66-5.57-4.07-5.57-3.69,0-4.07,2.62-4.26,5.76-.16,2.84-.19,5.33.03,8.06.19,2.76.66,5.57,4.07,5.57,3.69,0,4.07-2.62,4.23-5.76.19-2.84.22-5.33,0-8.06Z"/>
    <path class="cls-1" d="M61.51,30.34c-5.05,0-7.81-4.51-7.81-9.89s2.46-10.05,7.73-10.05,7.84,4.51,7.84,9.89-2.49,10.05-7.76,10.05ZM65.63,16.25c-.22-2.76-.66-5.57-4.07-5.57-3.69,0-4.07,2.62-4.26,5.76-.16,2.84-.19,5.33.03,8.06.19,2.76.66,5.57,4.07,5.57,3.69,0,4.07-2.62,4.23-5.76.19-2.84.22-5.33,0-8.06Z"/>
    <path class="cls-1" d="M78.99,30.02h-7.59c-.16,0-.25-.03-.25-.14,0-.14.05-.16.25-.16h1.31c.25,0,.27-.33.27-1.2V12.24c0-.87-.03-1.2-.27-1.2h-1.31c-.16,0-.25-.03-.25-.14,0-.14.05-.16.25-.16h7.59c5.16,0,7.76,4.48,7.76,9.56s-2.35,9.72-7.76,9.72ZM83.11,16.28c-.14-1.67-.38-5.24-4.1-5.24h-2.92c-.19,0-.27.08-.27.16v18.35c0,.08.05.16.25.16h2.92c3,0,3.91-1.97,4.15-5.44.16-2.62.19-5.38-.03-8Z"/>
    <path class="cls-1" d="M110.06,23.93v5.93c0,.11-.05.16-.25.16h-12.62c-.16,0-.25-.03-.25-.14,0-.14.05-.16.25-.16h1.31c.25,0,.27-.33.27-1.2V12.24c0-.87-.03-1.2-.27-1.2h-1.31c-.16,0-.25-.03-.25-.14,0-.14.05-.16.25-.16h11.74c.16,0,.25.05.25.19v5.71c0,.19-.08.25-.19.25s-.16-.05-.16-.25v-.27c0-2.95-1.31-5.33-4.04-5.33h-2.9c-.16,0-.27.05-.27.16v8.47c0,.08.05.14.25.14h1.83c1.45,0,2.57-1.09,2.57-2.62v-.25c0-.19.05-.25.16-.25s.16.05.16.25v6.04c0,.19-.05.25-.16.25s-.16-.05-.16-.25v-.22c0-1.58-1.12-2.68-2.57-2.68h-1.8c-.19,0-.27.05-.27.16v9.31c0,.08.05.16.25.16h2.73c4.07,0,5.11-3.5,5.11-5.54v-.25c0-.19.05-.25.16-.25s.19.05.19.25Z"/>
    <path class="cls-1" d="M26.09,51.87h-4.33c-.11,0-.16-.02-.16-.09,0-.09.04-.11.16-.11h.87c.16,0,.18-.22.18-.8v-10.85c0-.58-.02-.8-.18-.8h-.87c-.15,0-.16-.04-.16-.09s.02-.11.16-.11h7.85c.15,0,.16.07.16.13v4.02c0,.13-.05.16-.13.16s-.11-.04-.11-.16v-.36c0-1.97-.87-3.59-2.69-3.59h-1.95c-.13,0-.18.05-.18.11v5.95c0,.05.04.09.16.09h1.24c.96,0,1.71-.73,1.71-1.75v-.16c0-.13.04-.16.13-.16.07,0,.11.04.11.16v4.21c0,.13-.04.16-.13.16-.07,0-.11-.04-.11-.16v-.29c0-1.06-.75-1.82-1.71-1.82h-1.22c-.13,0-.18.05-.18.11v5.21c0,.58.02.8.18.8h1.2c.11,0,.16.02.16.09,0,.09-.04.11-.16.11Z"/>
    <path class="cls-1" d="M41.36,51.87h-3.99c-.11,0-.16-.02-.16-.09,0-.09.04-.11.16-.11h.87c.16,0,.18-.22.18-.8v-10.85c0-.58-.02-.8-.18-.8h-.87c-.11,0-.16-.02-.16-.09,0-.09.04-.11.16-.11h3.99c.13,0,.16.02.16.09,0,.09-.04.11-.16.11h-.86c-.16,0-.18.22-.18.8v10.85c0,.58.02.8.18.8h.86c.13,0,.16.02.16.09,0,.09-.04.11-.16.11Z"/>
    <path class="cls-1" d="M59.47,39.21h-.04c-.86,0-1.11.66-1.11,4.1v8.65c0,.05-.04.11-.18.11h-.55c-.13,0-.15-.05-.18-.11l-7.17-11.94h-.02v7.43c0,2.97.46,4.22,1.91,4.22h.24c.15,0,.16.04.16.09s-.02.11-.16.11h-3.51c-.11,0-.16-.02-.16-.09,0-.09.04-.11.16-.11h.04c.86,0,1.11-.66,1.11-4.1v-7.56c0-.58-.02-.8-.18-.8h-.87c-.13,0-.18-.02-.18-.09,0-.09.04-.11.18-.11h2.8c.07,0,.13.05.18.11l6.12,10.27h.04v-5.95c0-2.97-.44-4.22-1.89-4.22h-.22c-.11,0-.16-.02-.16-.09,0-.09.04-.11.16-.11h3.5c.13,0,.16.04.16.09,0,.09-.04.11-.16.11Z"/>
    <path class="cls-1" d="M72.01,51.87h-5.06c-.11,0-.16-.02-.16-.09,0-.09.04-.11.16-.11h.87c.16,0,.18-.22.18-.8v-10.85c0-.58-.02-.8-.18-.8h-.87c-.11,0-.16-.02-.16-.09,0-.09.04-.11.16-.11h5.06c3.44,0,5.17,2.99,5.17,6.37s-1.57,6.48-5.17,6.48ZM74.76,42.71c-.09-1.11-.25-3.5-2.73-3.5h-1.95c-.13,0-.18.05-.18.11v12.23c0,.05.04.11.16.11h1.95c2,0,2.6-1.31,2.77-3.62.11-1.75.13-3.59-.02-5.33Z"/>
    <path class="cls-1" d="M93.13,47.81v3.95c0,.07-.04.11-.16.11h-8.41c-.11,0-.16-.02-.16-.09,0-.09.04-.11.16-.11h.87c.16,0,.18-.22.18-.8v-10.85c0-.58-.02-.8-.18-.8h-.87c-.11,0-.16-.02-.16-.09,0-.09.04-.11.16-.11h7.83c.11,0,.16.04.16.13v3.81c0,.13-.05.16-.13.16s-.11-.04-.11-.16v-.18c0-1.97-.87-3.55-2.69-3.55h-1.93c-.11,0-.18.04-.18.11v5.64c0,.05.04.09.16.09h1.22c.96,0,1.71-.73,1.71-1.75v-.16c0-.13.04-.16.11-.16s.11.04.11.16v4.02c0,.13-.04.16-.11.16s-.11-.04-.11-.16v-.15c0-1.06-.75-1.78-1.71-1.78h-1.2c-.13,0-.18.04-.18.11v6.21c0,.05.04.11.16.11h1.82c2.71,0,3.4-2.33,3.4-3.7v-.16c0-.13.04-.16.11-.16s.13.04.13.16Z"/>
    <path class="cls-1" d="M107.65,50.01c0-.91.02-1.53.02-2.44,0-1.38-.35-2.35-1.82-2.35h-1.93c-.13,0-.18.05-.18.11v5.53c0,.58.02.8.18.8h.86c.13,0,.16.02.16.09,0,.09-.04.11-.16.11h-3.99c-.11,0-.16-.02-.16-.09,0-.09.04-.11.16-.11h.87c.16,0,.18-.22.18-.8v-10.85c0-.58-.02-.8-.18-.8h-.87c-.15,0-.16-.04-.16-.09s.02-.11.16-.11h5.13c1.69,0,3.79.69,3.79,3.11,0,1.77-1.58,2.84-3.11,2.99v.02c1.77.24,2.99,1.46,2.97,3.57v2.17c0,.36,0,.93.58.93.31,0,.66-.25.8-.66.04-.09.05-.18.16-.16.11.02.11.11.07.2-.16.51-.66.91-1.4.91-1.26,0-2.13-.84-2.13-2.08ZM105.96,39.21h-2.04c-.13,0-.18.05-.18.11v5.61c0,.05.04.11.16.11h2.11c1,0,1.73-.6,1.73-2.88,0-2.4-.8-2.95-1.78-2.95Z"/>
  </g>
  <rect class="cls-3" x="33.62" y="36.94" width="12.14" height="18.92"/>
  <path class="cls-5" d="M92.06,4.3c-1.93,0-3.5,1.57-3.5,3.5,0,1.73,1.26,3.16,2.91,3.44v7.63c0,.32.26,15.39.58,15.39s.58-15.07.58-15.39v-7.63c1.65-.28,2.91-1.71,2.91-3.44,0-1.93-1.57-3.5-3.5-3.5ZM92.65,8.38c-.32,0-.58-.26-.58-.58h0c-.32,0-.58-.26-.58-.58s.26-.58.58-.58c.64,0,1.17.52,1.17,1.17,0,.32-.26.58-.58.58Z"/>
  <g>
    <line class="cls-6" x1="5.98" y1="34.94" x2="124.59" y2="34.94"/>
    <path class="cls-4" d="M133.37,34.94c-4.13,1.53-9.26,4.15-12.43,6.92l2.5-6.92-2.5-6.92c3.18,2.77,8.3,5.38,12.43,6.92Z"/>
  </g>
  <g id="NewGroupe63">
    <g id="NewGroup0-36">
      <g>
        <path class="cls-2" d="M136.94,12.78l.52-.45c.13-.11.33-.1.45.03.05.06.08.13.08.21,0,.09-.04.18-.11.24l-.52.45c-.13.12-.33.1-.45-.03-.11-.13-.1-.33.03-.45h0ZM138.54,11.31l.19-.66c.05-.17.22-.27.39-.22.14.04.23.17.23.31,0,.03,0,.06-.01.09l-.19.66c-.05.17-.22.27-.39.22-.17-.05-.27-.22-.22-.39h0ZM139.45,12.92l.19-.66c.05-.17.22-.27.39-.22.14.04.23.17.23.31,0,.03,0,.06-.01.09l-.19.66c-.05.17-.22.27-.39.22-.17-.05-.27-.22-.22-.39h0ZM140.58,10.05l.52-.45c.13-.12.33-.1.45.03.05.06.08.13.08.21,0,.09-.04.18-.11.24l-.52.45c-.13.11-.33.1-.45-.03-.12-.13-.1-.33.03-.45h0ZM142.25,12.37c.05.06.08.13.08.21,0,.09-.04.18-.11.24l-.52.45c-.13.12-.33.1-.45-.03-.12-.13-.1-.33.03-.45l.52-.45c.13-.11.33-.1.45.03h0ZM142.16,10.94l.19-.66c.05-.17.22-.27.39-.22.14.04.23.17.23.31,0,.03,0,.06-.01.09l-.19.66c-.05.17-.22.27-.39.22-.17-.05-.27-.22-.22-.39h0ZM143.17,13.05l.52-.45c.13-.11.33-.1.45.03.05.06.08.13.08.21,0,.09-.04.18-.11.24l-.52.45c-.13.12-.33.1-.45-.03-.11-.13-.1-.33.03-.45h0ZM143.68,9.51l.52-.45c.13-.11.33-.1.45.03.05.06.08.13.08.21,0,.09-.04.18-.11.24l-.52.45c-.13.12-.33.1-.45-.03-.12-.13-.1-.33.03-.45h0ZM144.84,10.67c.14.04.23.17.23.31,0,.03,0,.06-.01.09l-.19.66c-.05.17-.22.27-.39.22-.17-.05-.27-.22-.22-.39l.19-.66c.05-.17.22-.27.39-.22h0ZM145.56,12.66l.52-.45c.13-.11.33-.1.45.03.05.06.08.13.08.21,0,.09-.04.18-.11.24l-.52.45c-.13.11-.33.1-.45-.03-.12-.13-.1-.33.03-.45h0ZM145.91,10.05l.52-.45c.13-.12.33-.1.45.03.05.06.08.13.08.21,0,.09-.04.18-.11.24l-.52.45c-.13.11-.33.1-.45-.03-.12-.13-.1-.33.03-.45h0ZM147.32,11.18l.19-.66c.05-.17.22-.27.39-.22.14.04.23.17.23.31,0,.03,0,.06-.01.09l-.19.66c-.05.17-.22.27-.39.22-.17-.05-.27-.22-.22-.39h0ZM148.39,12.37c.05.06.08.13.08.21,0,.09-.04.18-.11.24l-.52.45c-.13.12-.33.1-.45-.03-.12-.13-.1-.33.03-.45l.52-.45c.13-.11.33-.1.45.03h0ZM149.31,11.98c.06-.05.13-.08.21-.08.09,0,.18.04.24.11l.45.52c.11.13.1.33-.03.45-.13.12-.33.1-.45-.03l-.45-.52c-.12-.13-.1-.33.03-.45h0ZM135.55,13.85h16.03s.03-.02.02-.03c-1.41-3.14-4.52-5.66-7.95-5.69-3.49-.03-6.69,2.49-8.12,5.69,0,.02,0,.03.02.03h0Z"/>
        <path class="cls-2" d="M136.53,16.61h14.06c.56,0,1.01-.45,1.01-1.01s-.45-1.01-1.01-1.01h-14.06c-.56,0-1.01.45-1.01,1.01s.45,1.01,1.01,1.01h0Z"/>
        <path class="cls-2" d="M143.23,19.33l-2.05,2.81-2.18-2.81h-3.32c0,1.61.79,3.03,1.93,3.5,1.52.62,3.48,1.15,5.77,1.18,2.45.03,4.54-.54,6.14-1.18.57-.23,1.05-.7,1.39-1.32.34-.61.53-1.37.53-2.18h-8.23Z"/>
        <path class="cls-2" d="M151.44,17.61c-.11-.1-.25-.17-.41-.17h-14.88c-.32,0-.58.26-.58.58,0,.16.06.3.17.41.11.1.25.17.41.17h2.97l.57.73,1.49,1.93,1.4-1.93.53-.73h7.92c.32,0,.58-.26.58-.58,0-.16-.06-.3-.17-.41h0Z"/>
      </g>
    </g>
  </g>
  <g id="NewGroupe61">
    <g id="NewGroup0-38">
      <g>
        <path class="cls-2" d="M170.58,35.24c-.06.06-.14.1-.24.1h-8.53c-.18,0-.33-.15-.33-.33,0-.09.04-.18.1-.24.06-.06.14-.1.24-.1h8.53c.18,0,.33.15.33.33,0,.09-.04.18-.1.24h0ZM170.58,37.18c-.06.06-.14.1-.24.1h-8.53c-.18,0-.33-.15-.33-.33,0-.09.04-.18.1-.24s.14-.1.24-.1h8.53c.18,0,.33.15.33.33,0,.09-.04.18-.1.24h0ZM170.58,39.08c-.06.06-.14.1-.24.1h-8.53c-.18,0-.33-.15-.33-.33,0-.09.04-.18.1-.24s.14-.1.24-.1h8.53c.18,0,.33.15.33.33,0,.09-.04.18-.1.24h0ZM172.19,39.88l.9-6.75c-.44.13-.9.21-1.38.21-.99,0-1.94-.31-2.74-.87-.8.57-1.75.87-2.74.87-.76,0-1.5-.18-2.17-.53-.78.54-1.71.83-2.67.83-.85,0-1.65-.23-2.33-.62l.91,6.86c.09.65.73,1.14,1.49,1.14h9.25c.76,0,1.4-.49,1.49-1.14h0Z"/>
        <path class="cls-2" d="M173.88,28.08c-.42,0-.76-.34-.76-.76s.34-.76.76-.76.76.34.76.76-.34.76-.76.76h0ZM173.11,30.23h0c-.06.36-.37.64-.75.64-.42,0-.76-.34-.76-.76,0-.17.06-.33.15-.45.14-.18.36-.3.6-.3.42,0,.76.34.76.76,0,.04,0,.08,0,.12h0ZM170.5,29.29c-.16-.09-.21-.3-.12-.45l1.04-1.81c.09-.16.3-.21.45-.12.11.06.17.17.17.29,0,.06-.01.11-.04.17l-1.04,1.81c-.09.16-.3.21-.45.12h0ZM170.07,24.31c-.17.06-.36-.03-.42-.2l-.69-1.97c-.06-.17.03-.36.2-.42.04-.01.07-.02.11-.02.14,0,.27.09.31.22l.69,1.97c.06.17-.03.36-.2.42h0ZM169.61,31.14c-.28,0-.51-.23-.51-.51s.23-.51.51-.51.51.23.51.51-.23.51-.51.51h0ZM168.4,25.99c0-.42.34-.76.76-.76s.76.34.76.76-.34.76-.76.76-.76-.34-.76-.76h0ZM168.4,29.22l-.91.44-.97.46c-.17.08-.36,0-.44-.16-.05-.1-.04-.22.01-.31.03-.06.08-.11.15-.14l1.88-.9c.17-.08.36,0,.44.16.02.05.03.1.03.14,0,.12-.07.24-.19.3h0ZM166.08,31.89c-.28,0-.51-.23-.51-.51s.23-.51.51-.51.51.23.51.51-.23.51-.51.51h0ZM165.92,24.59s.07-.02.11-.02c.14,0,.27.09.31.22l.69,1.97c.06.17-.03.36-.2.42-.17.06-.36-.03-.42-.2l-.69-1.97c-.06-.17.03-.36.2-.42h0ZM167.13,21.91c.42,0,.76.34.76.76s-.34.76-.76.76-.76-.34-.76-.76.34-.76.76-.76h0ZM164.71,23.94c-.28,0-.51-.23-.51-.51s.23-.51.51-.51.51.23.51.51-.23.51-.51.51h0ZM163.72,28.84c-.42,0-.76-.34-.76-.76s.34-.76.76-.76.76.34.76.76-.34.76-.76.76h0ZM163.94,31c-.06.12-.18.19-.3.19-.05,0-.09,0-.14-.03l-1.9-.87c-.17-.08-.24-.27-.16-.44s.27-.24.44-.16l1.9.87c.17.08.24.27.16.44h0ZM161.18,23c0-.42.34-.76.76-.76s.76.34.76.76-.34.76-.76.76-.76-.34-.76-.76h0ZM159.78,27.63c-.28,0-.51-.23-.51-.51s.23-.51.51-.51.51.23.51.51-.23.51-.51.51h0ZM159.54,30.41c-.19,0-.37-.07-.5-.19-.16-.14-.26-.34-.26-.57,0-.42.34-.76.76-.76s.76.34.76.76-.34.76-.76.76h0ZM163.67,25.26c.17-.08.36,0,.44.16.02.05.03.1.03.14,0,.12-.07.24-.19.3l-1.88.9c-.17.08-.36,0-.44-.16-.08-.17,0-.36.16-.44l1.88-.9h0ZM172.43,24.64s0-.04,0-.06c0-2.24-1.81-4.05-4.05-4.05-1.21,0-2.3.53-3.04,1.37-.69-.54-1.55-.86-2.49-.86-2.24,0-4.05,1.81-4.05,4.05,0,.23.02.46.06.69-.92.74-1.51,1.88-1.51,3.16s.63,2.49,1.6,3.23c.68.52,1.53.82,2.45.82,1,0,1.92-.36,2.62-.96.64.42,1.4.66,2.22.66,1.06,0,2.02-.4,2.74-1.06.72.66,1.68,1.06,2.74,1.06.52,0,1.02-.1,1.48-.28,1.51-.59,2.57-2.06,2.57-3.77,0-1.99-1.44-3.65-3.33-3.99h0Z"/>
      </g>
    </g>
  </g>
  <g id="NewGroupe20">
    <g id="NewGroup0-79">
      <g>
        <path class="cls-2" d="M153.6,56.04l.57-2.09h-20.51l.57,2.09c.24.88,1.03,1.48,1.94,1.48h15.5c.91,0,1.7-.61,1.94-1.48h0Z"/>
        <path class="cls-2" d="M154.25,44.01s.02.02.03.03c.43-.52.83-1.1.98-1.62.06-.22-.06-.44-.28-.5-.22-.06-.44.06-.5.28-.12.4-.45.89-.84,1.35.23.13.43.28.61.47h0Z"/>
        <path class="cls-2" d="M142.39,41.67c-.21.09-.3.33-.21.54.02.05.28.63.68,1.31.1-.11.2-.2.32-.29.1-.08.21-.15.33-.21-.26-.46-.47-.89-.58-1.14-.09-.21-.33-.3-.54-.21h0Z"/>
        <path class="cls-2" d="M144.18,49.56c-.68.17-1.26.25-1.67.29.16.08,1.39.72,3.07,1,.05,0,.11.02.16.02-.01,0-.03-.02-.04-.02-.25-.16-.48-.34-.71-.53-.3-.25-.57-.5-.81-.77h0Z"/>
        <path class="cls-2" d="M153.01,44.23c-.46-.19-1.01-.18-1.5.05-.18.08-.33.23-.44.4-.43.65-1.08,1.5-2.01,2.33.08.08.16.17.24.25.89.87,1.83,1.49,2.71,1.93,1.02-.89,1.6-1.89,1.9-2.5.31-.67.21-1.44-.23-1.97-.02-.03-.04-.05-.07-.07-.17-.18-.38-.31-.6-.4h0Z"/>
        <path class="cls-2" d="M143.37,44.31h0c-.31.44-.42,1.03-.26,1.6.19.62.59,1.64,1.38,2.63.19.24.41.49.66.73.13.12.26.24.41.36.68.56,1.41.95,2.14,1.22.08.03.16.06.25.08h0c.08,0,.16-.02.24-.03.3-.04.6-.06.91-.06h4.72s.06-.02.07-.02c-.43-.11-1.04-.3-1.74-.61-.29-.13-.6-.28-.91-.45-.82-.45-1.7-1.06-2.55-1.89-.11-.11-.21-.21-.31-.32-.21-.23-.41-.45-.59-.68-.75-.93-1.23-1.82-1.54-2.51-.08-.18-.21-.35-.38-.46-.57-.38-1.29-.43-1.87-.14-.09.05-.18.1-.26.16-.14.11-.26.23-.36.37h0Z"/>
        <path class="cls-2" d="M140.01,47.88c-.03.32-.29.58-.62.62-.44.04-.8-.32-.76-.76.03-.32.29-.58.62-.62.44-.04.8.32.76.76h0ZM139.44,49.87c-.03.17-.16.3-.33.33-.28.05-.51-.19-.47-.47.03-.17.16-.3.33-.33.28-.05.51.19.47.47h0ZM138.3,46.54c-.03.17-.16.3-.33.33-.28.05-.51-.19-.47-.47.03-.17.16-.3.33-.33.28-.05.51.19.47.47h0ZM137.49,47.76c-.03.25-.24.46-.49.49-.37.05-.68-.27-.64-.64.03-.25.24-.46.49-.49.37-.05.68.27.64.64h0ZM137.29,49.72c-.04.38-.35.69-.73.73-.51.05-.94-.38-.89-.89.04-.38.34-.69.73-.73.51-.05.94.38.89.89h0ZM135.48,46.87c-.17-.03-.3-.16-.33-.33-.05-.28.19-.51.47-.47.17.03.3.16.33.33.05.28-.19.51-.47.47h0ZM134.81,48.01c-.04.38-.34.69-.73.73-.51.05-.94-.38-.89-.89.04-.38.35-.69.73-.73.51-.05.94.38.89.89h0ZM134.16,49.87c-.03.17-.16.3-.33.33-.28.05-.51-.19-.47-.47.03-.17.16-.3.33-.33.28-.05.51.19.47.47h0ZM136.52,45.25c-2.7-.02-4.91,2.23-4.91,4.93v.67h9.75v-.73c0-.36-.04-.71-.11-1.04-.2-.93-.67-1.76-1.32-2.4-.87-.87-2.08-1.42-3.41-1.43h0Z"/>
        <path class="cls-2" d="M130.85,51.74c-.35,0-.65.27-.66.62-.02.37.28.68.65.68h2.58s20.99.01,20.99.01h0s2.56-.01,2.56-.01c.35,0,.65-.27.66-.62.02-.37-.28-.68-.65-.68h-26.14Z"/>
        <path class="cls-2" d="M141.24,40.06l.29.38c.06.08.17.12.28.12.05,0,.11-.01.16-.03.15-.07.2-.21.12-.33l-.29-.38c-.13-.16-.13-.39,0-.55.61-.79.68-1.76.18-2.6l-.15-.25c-.07-.12-.26-.17-.42-.12s-.23.2-.16.32l.15.25c.41.69.36,1.49-.14,2.15-.24.31-.24.74,0,1.04h0Z"/>
        <path class="cls-2" d="M143.85,38.14l.29.38c.06.08.17.12.28.12.05,0,.11-.01.16-.03.15-.07.2-.21.12-.33l-.29-.38c-.13-.17-.13-.39,0-.56.61-.79.67-1.76.17-2.59l-.15-.25c-.07-.12-.26-.17-.42-.12-.16.05-.23.2-.16.32l.15.25c.41.69.36,1.5-.15,2.16-.25.32-.25.72,0,1.04h0Z"/>
        <path class="cls-2" d="M146.17,40.08l.29.38c.06.08.17.12.28.12.05,0,.11-.01.16-.03.15-.07.2-.21.12-.33l-.29-.38c-.13-.17-.13-.39,0-.56.61-.79.67-1.76.17-2.59l-.15-.25c-.07-.12-.26-.17-.42-.12-.16.05-.23.2-.16.32l.15.25c.41.69.36,1.5-.15,2.16-.25.32-.25.72,0,1.04h0Z"/>
      </g>
    </g>
  </g>
</svg>