<?xml version="1.0" encoding="UTF-8"?>
<svg id="Layer_2" data-name="Layer 2" xmlns="http://www.w3.org/2000/svg" viewBox="0 0 150 150">
  <defs>
    <style>
      .cls-1 {
        fill: #000;
        stroke-width: 0px;
      }
    </style>
  </defs>
  <g id="Layer_1-2" data-name="Layer 1">
    <path class="cls-1" d="M145.08,121.31l-37.48-37.47c11.7-22.07,7.73-49.31-10.06-67.1C86.75,5.94,72.41,0,57.14,0S27.53,5.94,16.74,16.74C5.94,27.52,0,41.87,0,57.14s5.94,29.61,16.74,40.4c10.77,10.77,25.08,16.7,40.32,16.7,9.36,0,18.56-2.29,26.78-6.64l37.48,37.47c3.17,3.17,7.39,4.92,11.89,4.92s8.71-1.75,11.88-4.92c6.55-6.55,6.55-17.21,0-23.77h0ZM94.12,57.14c0,9.88-3.85,19.16-10.83,26.14-6.98,6.98-16.27,10.83-26.14,10.83s-19.16-3.85-26.14-10.83c-14.42-14.42-14.42-37.87,0-52.29,6.98-6.98,16.27-10.83,26.14-10.83s19.16,3.85,26.14,10.83c6.98,6.98,10.83,16.27,10.83,26.15Z"/>
  </g>
</svg>